# xmcd
#
# Track frame offsets:
#	150
#	12018
#	23611
#	33740
#	45125
#	56389
#	66811
#	78028
#	89971
#	100283
#
# Disc length: 1500 seconds
#
# Revision: 1
# Processed by: cddbd v1.5.2PL0 Copyright (c) Steve Scherf et al.
# Submitted via: audiograbber 1.83.01
#
DISCID=6e05da0a
DTITLE=Willie Nelson - Laying My Burdens Down
DYEAR=1970
DGENRE=Country
TTITLE0=Laying My Burdens Down
TTITLE1=How Long Have You Been There
TTITLE2=Senses
TTITLE3=I Don't Feel Anything
TTITLE4=I've Seen That Look on Me (a Thousand Times)
TTITLE5=Where Do You Stand?
TTITLE6=Minstrel Man
TTITLE7=Happiness Lives Next Door
TTITLE8=When We Live Again
TTITLE9=Following Me Around
EXTD=
EXTT0=
EXTT1=
EXTT2=
EXTT3=
EXTT4=
EXTT5=
EXTT6=
EXTT7=
EXTT8=
EXTT9=
PLAYORDER=
